<svg width="256" height="256" viewBox="0 0 256 256" fill="none" xmlns="http://www.w3.org/2000/svg">
<path fill-rule="evenodd" clip-rule="evenodd" d="M8 128C8 61.7089 61.729 7.97998 128.02 7.97998C194.311 7.97998 248.04 61.7089 248 128C248 147.843 243.159 166.526 234.638 183.009C232.197 185.25 229.517 187.33 226.596 189.05C207.433 200.412 197.071 201.692 182.869 201.692C164.706 201.692 143.143 198.172 120.579 191.531C108.537 187.97 98.255 186.33 88.2134 186.33C76.7315 186.33 62.209 187.89 46.4464 193.971C41.1255 196.051 36.3247 198.052 31.964 199.972C16.9215 179.929 8 155.004 8 128ZM182.229 184.689C196.231 184.689 215.034 182.529 225.276 172.247L225.316 172.327C229.877 167.727 232.317 161.886 232.317 155.805C232.277 146.443 227.917 130.72 199.272 130.72C197.192 130.72 194.991 130.76 192.871 130.84C193.391 127.76 193.551 124.599 193.391 121.439C193.071 115.958 191.791 110.717 189.63 105.796C195.871 101.316 200.792 96.2747 204.273 90.7538C212.514 77.6716 212.074 62.309 203.113 49.7069C199.432 44.5061 193.311 41.4256 186.79 41.4256C181.709 41.4256 176.828 43.2659 173.027 46.5864L169.627 49.5469C167.347 39.1452 161.186 30.3437 151.744 24.7028C148.743 22.9025 145.303 21.9423 141.742 21.9423C133.341 21.9423 125.42 27.3032 122.019 35.3045L98.4151 89.0735C90.5338 84.2727 79.4519 79.1118 65.5296 79.1118C61.2489 79.1118 56.8881 79.5919 52.4874 80.5521C25.2029 86.5131 17.1215 103.476 18.4817 116.198C19.842 128.84 30.4437 138.442 43.3659 139.042C40.2454 142.882 37.0448 147.523 34.0043 153.244L25.763 168.727C21.6423 176.528 29.2835 185.29 37.5649 182.289L54.0477 176.288C66.6098 171.687 77.7316 169.567 89.0135 169.567C98.8951 169.567 109.057 171.207 120.899 174.688C143.143 181.249 164.346 184.689 182.229 184.689Z" fill="white"/>
<path d="M88.2134 203.733C96.5748 203.733 105.296 205.133 115.698 208.213L115.658 208.173C139.822 215.294 163.066 219.055 182.869 219.055C192.591 219.055 200.872 218.375 209.834 215.735C188.39 235.738 160.665 248.02 127.98 248.02C95.2945 248.02 65.6496 234.938 44.006 213.734C46.7665 212.574 49.6069 211.414 52.7275 210.214C63.8493 205.933 75.7713 203.733 88.2134 203.733Z" fill="white"/>
<path fill-rule="evenodd" clip-rule="evenodd" d="M191.994 147.168C194.522 147.084 196.971 147.003 199.272 147.003V146.843C208.793 146.843 215.915 148.163 215.955 155.645C215.995 162.486 203.873 168.127 182.269 168.127C167.506 168.127 148.303 165.486 125.579 158.805C112.817 155.085 100.975 153.044 89.0934 153.044C77.8915 153.044 66.6896 154.804 54.6076 158.645C52.4873 159.325 50.647 156.925 51.8472 155.045C57.7542 145.915 63.7894 141.183 68.3437 137.612C73.9683 133.202 77.3344 130.563 75.4111 123.599C73.9309 118.238 69.6501 116.398 65.2894 116.398C60.9287 116.398 56.0879 118.118 52.7273 120.119C49.8468 121.839 47.1264 122.559 44.686 122.559C31.9639 122.559 27.4831 102.596 56.0479 96.3948C59.4084 95.6346 62.569 95.3146 65.6095 95.3146C75.8912 95.3146 84.5726 99.1952 93.054 104.836C92.1739 108.117 91.7338 111.557 91.7338 115.078C91.7338 138.282 111.377 157.125 135.661 157.125C141.462 157.125 147.023 156.045 152.104 154.084C148.903 155.085 145.503 155.685 141.942 155.845C141.222 155.885 140.542 155.885 139.822 155.885C120.379 155.885 104.256 142.762 103.336 125.76C103.056 120.279 104.376 115.038 106.936 110.397L137.101 41.5856C138.022 39.5053 139.982 38.145 141.782 38.145C142.342 38.145 142.902 38.3051 143.382 38.5851C148.463 41.6256 156.065 48.7468 153.864 63.3092C152.184 74.5111 145.863 84.4728 139.462 92.034H140.582C142.302 92.034 144.023 92.154 145.663 92.3541L183.869 58.7485C184.709 58.0284 185.79 57.6683 186.83 57.6683C188.03 57.6683 189.15 58.1484 189.83 59.0685C192.911 63.4293 196.791 71.8707 190.47 81.8723C184.989 90.5138 174.468 96.5548 165.346 100.435C172.147 105.876 176.548 113.518 177.028 122.199C177.548 131.401 173.507 139.882 166.666 146.043C171.907 146.843 177.548 147.323 183.629 147.323H186.43C188.307 147.29 190.171 147.228 191.994 147.168ZM142.382 115.958C142.382 120.775 138.478 124.679 133.661 124.679C128.844 124.679 124.939 120.775 124.939 115.958C124.939 111.141 128.844 107.237 133.661 107.237C138.478 107.237 142.382 111.141 142.382 115.958Z" fill="white"/>
</svg>
