<svg width="1265" height="256" viewBox="0 0 1265 256" fill="none" xmlns="http://www.w3.org/2000/svg">
<path fill-rule="evenodd" clip-rule="evenodd" d="M8 128C8 61.7202 61.7199 8.00024 128 8.00024C194.28 8.00024 248 61.7202 247.96 128C247.96 147.84 243.12 166.52 234.6 183C232.16 185.24 229.48 187.32 226.56 189.04C207.4 200.4 197.04 201.68 182.84 201.68C164.68 201.68 143.12 198.16 120.56 191.52C108.52 187.96 98.2399 186.32 88.1999 186.32C76.7199 186.32 62.1999 187.88 46.44 193.96C41.12 196.04 36.32 198.04 31.96 199.96C16.92 179.92 8 155 8 128ZM182.2 184.68C196.2 184.68 215 182.52 225.24 172.24L225.28 172.32C229.84 167.72 232.28 161.88 232.28 155.8C232.24 146.44 227.88 130.72 199.24 130.72C197.16 130.72 194.96 130.76 192.84 130.84C193.36 127.76 193.52 124.6 193.36 121.44C193.04 115.96 191.76 110.72 189.6 105.8C195.84 101.32 200.76 96.2802 204.24 90.7602C212.48 77.6802 212.04 62.3202 203.08 49.7202C199.4 44.5202 193.28 41.4402 186.76 41.4402C181.68 41.4402 176.8 43.2802 173 46.6002L169.6 49.5602C167.32 39.1602 161.16 30.3602 151.72 24.7202C148.72 22.9202 145.28 21.9602 141.72 21.9602C133.32 21.9602 125.4 27.3202 122 35.3202L98.3999 89.0802C90.5199 84.2802 79.4399 79.1202 65.5199 79.1202C61.24 79.1202 56.88 79.6002 52.48 80.5602C25.2 86.5202 17.12 103.48 18.48 116.2C19.84 128.84 30.44 138.44 43.36 139.04C40.24 142.88 37.04 147.52 34 153.24L25.76 168.72C21.64 176.52 29.28 185.28 37.56 182.28L54.04 176.28C66.5999 171.68 77.7199 169.56 88.9999 169.56C98.8799 169.56 109.04 171.2 120.88 174.68C143.12 181.24 164.32 184.68 182.2 184.68Z" fill="white"/>
<path d="M88.1999 203.72C96.5599 203.72 105.28 205.12 115.68 208.2L115.64 208.16C139.8 215.28 163.04 219.04 182.84 219.04C192.56 219.04 200.84 218.36 209.8 215.72C188.36 235.72 160.64 248 127.96 248C95.2799 248 65.6399 234.92 44 213.72C46.76 212.56 49.6 211.4 52.72 210.2C63.8399 205.92 75.7599 203.72 88.1999 203.72Z" fill="white"/>
<path fill-rule="evenodd" clip-rule="evenodd" d="M191.964 147.165C194.49 147.081 196.939 147 199.24 147V146.84C208.76 146.84 215.88 148.16 215.92 155.64C215.96 162.48 203.84 168.12 182.24 168.12C167.48 168.12 148.28 165.48 125.56 158.8C112.8 155.08 100.96 153.04 89.0798 153.04C77.8798 153.04 66.6798 154.8 54.5998 158.64C52.4798 159.32 50.6398 156.92 51.8398 155.04C57.7459 145.913 63.78 141.181 68.3336 137.611C73.9573 133.201 77.3228 130.563 75.3998 123.6C73.9198 118.24 69.6398 116.4 65.2798 116.4C60.9198 116.4 56.0798 118.12 52.7198 120.12C49.8398 121.84 47.1198 122.56 44.6798 122.56C31.9599 122.56 27.4799 102.6 56.0398 96.4002C59.3998 95.6402 62.5598 95.3202 65.5998 95.3202C75.8798 95.3202 84.5598 99.2002 93.0398 104.84C92.1598 108.12 91.7198 111.56 91.7198 115.08C91.7198 138.28 111.36 157.12 135.64 157.12C141.44 157.12 147 156.04 152.08 154.08C148.88 155.08 145.48 155.68 141.92 155.84C141.2 155.88 140.52 155.88 139.8 155.88C120.36 155.88 104.24 142.76 103.32 125.76C103.04 120.28 104.36 115.04 106.92 110.4L137.08 41.6002C138 39.5202 139.96 38.1602 141.76 38.1602C142.32 38.1602 142.88 38.3202 143.36 38.6002C148.44 41.6402 156.04 48.7602 153.84 63.3202C152.16 74.5202 145.84 84.4802 139.44 92.0402H140.56C142.28 92.0402 144 92.1602 145.64 92.3602L183.84 58.7602C184.68 58.0402 185.76 57.6802 186.8 57.6802C188 57.6802 189.12 58.1602 189.8 59.0802C192.88 63.4402 196.76 71.8802 190.44 81.8802C184.96 90.5202 174.44 96.5602 165.32 100.44C172.12 105.88 176.52 113.52 177 122.2C177.52 131.4 173.48 139.88 166.64 146.04C171.88 146.84 177.52 147.32 183.6 147.32H186.4C188.277 147.287 190.141 147.225 191.964 147.165ZM142.36 115.96C142.36 120.776 138.456 124.68 133.64 124.68C128.824 124.68 124.92 120.776 124.92 115.96C124.92 111.144 128.824 107.24 133.64 107.24C138.456 107.24 142.36 111.144 142.36 115.96Z" fill="white"/>
<path fill-rule="evenodd" clip-rule="evenodd" d="M625.959 108.04L617.559 161.32H603.159L610.839 112.72C611.319 109.24 610.599 109.12 607.599 109.12H584.559L576.399 161.32H561.999L575.902 74.6801H590.302L586.839 95.3201H614.799C623.799 95.3201 627.639 97.3601 625.959 108.04ZM423.07 148.6C421.39 159.28 416.95 161.32 407.95 161.32H379.99L376.427 181.32H362.027L373.99 108.04C375.67 97.3601 380.23 95.3201 389.23 95.3201H418.39C427.39 95.3201 431.23 97.3601 429.55 108.04L423.07 148.6ZM405.19 147.52C408.19 147.52 408.91 147.4 409.39 143.92L414.43 112.72C414.91 109.24 414.19 109.12 411.19 109.12H391.87C388.87 109.12 388.15 109.24 387.67 112.72L382.15 147.52H405.19ZM490.542 148.6C488.862 159.28 484.422 161.32 475.422 161.32H446.262C437.262 161.32 433.302 159.28 434.982 148.6L437.502 132.76C439.182 122.08 443.742 120.04 452.742 120.04H480.702L481.902 112.72C482.382 109.24 481.662 109.12 478.662 109.12H442.542L444.822 95.3201H485.862C494.862 95.3201 498.702 97.3601 497.022 108.04L490.542 148.6ZM472.662 147.52C475.662 147.52 476.382 147.4 476.862 143.92L478.542 133.84H455.502C452.502 133.84 451.782 133.96 451.182 137.44L450.102 143.92C449.622 147.4 450.342 147.52 453.342 147.52H472.662ZM550.844 161.32L553.004 147.52H521.804C518.804 147.52 518.084 147.4 518.564 143.92L523.604 112.72C524.084 109.24 524.804 109.12 527.804 109.12H559.004L561.284 95.3201H525.164C516.164 95.3201 511.604 97.3601 509.924 108.04L503.444 148.6C501.764 159.28 505.724 161.32 514.724 161.32H550.844ZM683.585 161.32L685.745 147.52H650.945C647.945 147.52 647.225 147.4 647.705 143.92L649.025 135.76H676.985C685.985 135.76 690.545 133.72 692.225 123.04L694.625 108.04C696.305 97.3601 692.465 95.3201 683.465 95.3201H654.305C645.305 95.3201 640.745 97.3601 639.065 108.04L632.585 148.6C630.905 159.28 634.865 161.32 643.865 161.32H683.585ZM678.545 118.36C678.065 121.84 677.225 121.96 674.225 121.96H651.185L652.745 112.72C653.225 109.24 653.945 109.12 656.945 109.12H676.265C679.265 109.12 679.985 109.24 679.505 112.72L678.545 118.36ZM785.588 148.6C783.908 159.28 779.468 161.32 770.468 161.32H721.868L735.548 74.6801H784.148C793.148 74.6801 796.988 76.7201 795.308 87.4001L785.588 148.6ZM767.708 147.52C771.068 147.52 771.428 147.4 771.908 144.04L780.188 92.0801C780.668 88.6001 780.068 88.4801 777.068 88.4801H747.788L738.428 147.52H767.708ZM850.577 161.32L852.737 147.52H817.937C814.937 147.52 814.217 147.4 814.697 143.92L816.017 135.76H843.977C852.977 135.76 857.537 133.72 859.217 123.04L861.617 108.04C863.297 97.3601 859.457 95.3201 850.457 95.3201H821.297C812.297 95.3201 807.737 97.3601 806.057 108.04L799.577 148.6C797.897 159.28 801.857 161.32 810.857 161.32H850.577ZM845.537 118.36C845.057 121.84 844.217 121.96 841.217 121.96H818.177L819.737 112.72C820.217 109.24 820.937 109.12 823.937 109.12H843.257C846.257 109.12 846.977 109.24 846.497 112.72L845.537 118.36ZM927.569 95.3201L897.089 161.32H879.089L869.368 95.3201H884.609L890.609 145.12L912.569 95.3201H927.569ZM977.257 161.32L979.417 147.52H942.217L953.737 74.6801H939.337L925.657 161.32H977.257ZM1041.32 148.6C1039.64 159.28 1035.2 161.32 1026.2 161.32H997.043C988.043 161.32 984.083 159.28 985.763 148.6L988.283 132.76C989.963 122.08 994.523 120.04 1003.52 120.04H1031.48L1032.68 112.72C1033.16 109.24 1032.44 109.12 1029.44 109.12H993.323L995.603 95.3201H1036.64C1045.64 95.3201 1049.48 97.3601 1047.8 108.04L1041.32 148.6ZM1023.44 147.52C1026.44 147.52 1027.16 147.4 1027.64 143.92L1029.32 133.84H1006.28C1003.28 133.84 1002.56 133.96 1001.96 137.44L1000.88 143.92C1000.4 147.4 1001.12 147.52 1004.12 147.52H1023.44ZM1104.39 161.32L1089.39 128.56L1115.31 95.3201H1099.71L1078.95 121.72H1073.19L1080.55 74.6801H1066.15L1052.55 161.32H1066.95L1071.03 135.52H1077.03L1088.79 161.32H1104.39ZM1166.8 147.52L1164.64 161.32H1124.92C1115.92 161.32 1111.96 159.28 1113.64 148.6L1120.12 108.04C1121.8 97.3601 1126.36 95.3201 1135.36 95.3201H1164.52C1173.52 95.3201 1177.36 97.3601 1175.68 108.04L1173.28 123.04C1171.6 133.72 1167.04 135.76 1158.04 135.76H1130.08L1128.76 143.92C1128.28 147.4 1129 147.52 1132 147.52H1166.8ZM1155.28 121.96C1158.28 121.96 1159.12 121.84 1159.6 118.36L1160.56 112.72C1161.04 109.24 1160.32 109.12 1157.32 109.12H1138C1135 109.12 1134.28 109.24 1133.8 112.72L1132.24 121.96H1155.28ZM303.945 161.32H288L308.567 83.7446C309.962 78.4833 314.723 74.8199 320.166 74.8199H349.272C353.872 74.8199 357.525 78.6906 357.258 83.2834L352.729 161.32H337.259L339.601 131.406H311.78L303.945 161.32ZM342.756 91.1175L340.704 117.322H315.468L322.228 91.5166C322.689 89.7572 324.279 88.5302 326.098 88.5302H340.363C341.762 88.5302 342.865 89.7225 342.756 91.1175Z" fill="white"/>
<path d="M1214.56 32.1123V70.5123H1220.7V42.5763H1220.99L1233.09 70.5123H1238.27L1250.37 42.5763H1250.66V70.5123H1256.8V32.1123H1249.22L1235.87 62.4483H1235.58L1222.14 32.1123H1214.56ZM1178.18 32.1123V37.7763H1191.42V70.5123H1197.66V37.7763H1210.91V32.1123H1178.18Z" fill="white"/>
</svg>
