<svg width="522" height="382" viewBox="0 0 522 382" fill="none" xmlns="http://www.w3.org/2000/svg">
<path fill-rule="evenodd" clip-rule="evenodd" d="M140.532 128.018C140.532 61.7279 194.26 7.99976 260.55 7.99976C326.84 7.99976 380.569 61.7279 380.529 128.018C380.529 147.861 375.688 166.544 367.167 183.026C364.726 185.267 362.046 187.347 359.125 189.067C339.962 200.429 329.601 201.709 315.399 201.709C297.236 201.709 275.673 198.189 253.109 191.548C241.067 187.987 230.786 186.347 220.744 186.347C209.262 186.347 194.74 187.907 178.978 193.988C173.657 196.068 168.856 198.069 164.496 199.989C149.453 179.946 140.532 155.022 140.532 128.018ZM314.759 184.707C328.761 184.707 347.564 182.546 357.805 172.265L357.845 172.345C362.406 167.744 364.846 161.903 364.846 155.822C364.806 146.461 360.446 130.738 331.801 130.738C329.721 130.738 327.521 130.778 325.4 130.858C325.92 127.778 326.08 124.618 325.92 121.457C325.6 115.976 324.32 110.735 322.16 105.815C328.401 101.334 333.321 96.2932 336.802 90.7724C345.043 77.6904 344.603 62.328 335.642 49.7261C331.961 44.5253 325.84 41.4449 319.319 41.4449C314.238 41.4449 309.358 43.2851 305.557 46.6056L302.157 49.5661C299.876 39.1645 293.715 30.3632 284.274 24.7223C281.273 22.922 277.833 21.9619 274.272 21.9619C265.871 21.9619 257.95 27.3227 254.549 35.3239L230.946 89.0921C223.065 84.2914 211.983 79.1306 198.061 79.1306C193.78 79.1306 189.419 79.6107 185.019 80.5708C157.735 86.5317 149.653 103.494 151.014 116.216C152.374 128.858 162.975 138.46 175.897 139.06C172.777 142.9 169.576 147.541 166.536 153.262L158.295 168.744C154.174 176.545 161.815 185.307 170.096 182.306L186.579 176.305C199.141 171.705 210.263 169.584 221.544 169.584C231.426 169.584 241.587 171.225 253.429 174.705C275.673 181.266 296.876 184.707 314.759 184.707Z" fill="white"/>
<path d="M220.744 203.75C229.105 203.75 237.827 205.15 248.228 208.23L248.188 208.19C272.352 215.311 295.596 219.072 315.399 219.072C325.12 219.072 333.401 218.392 342.363 215.751C320.92 235.754 293.195 248.036 260.51 248.036C227.825 248.036 198.181 234.954 176.537 213.751C179.298 212.591 182.138 211.431 185.259 210.231C196.381 205.95 208.302 203.75 220.744 203.75Z" fill="white"/>
<path fill-rule="evenodd" clip-rule="evenodd" d="M324.524 147.186C327.051 147.102 329.5 147.021 331.801 147.021V146.861C341.323 146.861 348.444 148.181 348.484 155.662C348.524 162.503 336.402 168.144 314.798 168.144C300.036 168.144 280.833 165.504 258.11 158.823C245.348 155.102 233.506 153.062 221.624 153.062C210.423 153.062 199.221 154.822 187.139 158.663C185.019 159.343 183.178 156.942 184.379 155.062C190.285 145.933 196.321 141.201 200.875 137.63C206.499 133.22 209.865 130.581 207.942 123.617C206.462 118.257 202.181 116.416 197.821 116.416C193.46 116.416 188.619 118.137 185.259 120.137C182.378 121.857 179.658 122.577 177.217 122.577C164.496 122.577 160.015 102.614 188.579 96.4133C191.94 95.6532 195.1 95.3331 198.141 95.3331C208.422 95.3331 217.104 99.2137 225.585 104.855C224.705 108.135 224.265 111.576 224.265 115.096C224.265 138.3 243.908 157.143 268.191 157.143C273.992 157.143 279.553 156.062 284.634 154.102C281.433 155.102 278.033 155.702 274.472 155.862C273.752 155.902 273.072 155.902 272.352 155.902C252.909 155.902 236.787 142.78 235.866 125.778C235.586 120.297 236.907 115.056 239.467 110.415L269.632 41.6049C270.552 39.5246 272.512 38.1644 274.312 38.1644C274.872 38.1644 275.432 38.3244 275.912 38.6045C280.993 41.6449 288.594 48.766 286.394 63.3282C284.714 74.5299 278.393 84.4915 271.992 92.0526H273.112C274.832 92.0526 276.553 92.1726 278.193 92.3726L316.399 58.7675C317.239 58.0474 318.319 57.6874 319.359 57.6874C320.559 57.6874 321.68 58.1674 322.36 59.0876C325.44 63.4482 329.321 71.8895 323 81.8911C317.519 90.5324 306.997 96.5733 297.876 100.454C304.677 105.895 309.078 113.536 309.558 122.217C310.078 131.419 306.037 139.9 299.196 146.061C304.437 146.861 310.078 147.341 316.159 147.341H318.959C320.837 147.308 322.701 147.246 324.524 147.186ZM274.912 115.976C274.912 120.793 271.008 124.698 266.191 124.698C261.374 124.698 257.47 120.793 257.47 115.976C257.47 111.16 261.374 107.255 266.191 107.255C271.008 107.255 274.912 111.16 274.912 115.976Z" fill="white"/>
<path fill-rule="evenodd" clip-rule="evenodd" d="M208.595 308.9L204.482 334.987H197.431L201.192 311.191C201.427 309.487 201.074 309.429 199.605 309.429H188.324L184.329 334.987H177.278L184.086 292.566H191.136L189.441 302.672H203.131C207.537 302.672 209.418 303.671 208.595 308.9ZM109.254 328.759C108.432 333.989 106.258 334.987 101.851 334.987H88.1608L86.4165 344.78H79.3658L85.223 308.9C86.0456 303.671 88.2783 302.672 92.685 302.672H106.963C111.369 302.672 113.25 303.671 112.427 308.9L109.254 328.759ZM100.499 328.23C101.968 328.23 102.321 328.172 102.556 326.468L105.024 311.191C105.259 309.487 104.906 309.429 103.437 309.429H93.9776C92.5087 309.429 92.1562 309.487 91.9211 311.191L89.2184 328.23H100.499ZM142.29 328.759C141.468 333.989 139.294 334.987 134.887 334.987H120.61C116.203 334.987 114.264 333.989 115.087 328.759L116.32 321.003C117.143 315.774 119.376 314.775 123.782 314.775H137.472L138.06 311.191C138.295 309.487 137.943 309.429 136.474 309.429H118.788L119.905 302.672H139.999C144.406 302.672 146.286 303.671 145.463 308.9L142.29 328.759ZM133.536 328.23C135.005 328.23 135.357 328.172 135.592 326.468L136.415 321.532H125.134C123.665 321.532 123.312 321.591 123.019 323.295L122.49 326.468C122.255 328.172 122.607 328.23 124.076 328.23H133.536ZM171.817 334.987L172.874 328.23H157.598C156.129 328.23 155.776 328.172 156.011 326.468L158.479 311.191C158.714 309.487 159.067 309.429 160.535 309.429H175.812L176.928 302.672H159.243C154.836 302.672 152.603 303.671 151.781 308.9L148.608 328.759C147.785 333.989 149.724 334.987 154.131 334.987H171.817ZM236.811 334.987L237.868 328.23H220.829C219.36 328.23 219.008 328.172 219.243 326.468L219.889 322.472H233.579C237.986 322.472 240.218 321.474 241.041 316.244L242.216 308.9C243.039 303.671 241.158 302.672 236.752 302.672H222.474C218.067 302.672 215.835 303.671 215.012 308.9L211.839 328.759C211.017 333.989 212.956 334.987 217.362 334.987H236.811ZM234.343 313.953C234.108 315.657 233.697 315.715 232.228 315.715H220.947L221.71 311.191C221.945 309.487 222.298 309.429 223.767 309.429H233.226C234.695 309.429 235.048 309.487 234.813 311.191L234.343 313.953ZM286.754 328.759C285.932 333.989 283.758 334.987 279.351 334.987H255.555L262.253 292.566H286.049C290.456 292.566 292.336 293.565 291.514 298.794L286.754 328.759ZM278 328.23C279.645 328.23 279.821 328.172 280.056 326.527L284.11 301.085C284.345 299.381 284.052 299.323 282.583 299.323H268.246L263.663 328.23H278ZM318.575 334.987L319.633 328.23H302.594C301.125 328.23 300.772 328.172 301.007 326.468L301.654 322.472H315.344C319.75 322.472 321.983 321.474 322.806 316.244L323.981 308.9C324.803 303.671 322.923 302.672 318.516 302.672H304.239C299.832 302.672 297.599 303.671 296.777 308.9L293.604 328.759C292.781 333.989 294.72 334.987 299.127 334.987H318.575ZM316.107 313.953C315.872 315.657 315.461 315.715 313.992 315.715H302.711L303.475 311.191C303.71 309.487 304.063 309.429 305.531 309.429H314.991C316.46 309.429 316.813 309.487 316.578 311.191L316.107 313.953ZM356.273 302.672L341.349 334.987H332.536L327.776 302.672H335.238L338.176 327.055L348.928 302.672H356.273ZM380.602 334.987L381.66 328.23H363.445L369.086 292.566H362.035L355.337 334.987H380.602ZM411.971 328.759C411.148 333.989 408.974 334.987 404.567 334.987H390.29C385.883 334.987 383.944 333.989 384.767 328.759L386.001 321.003C386.823 315.774 389.056 314.775 393.463 314.775H407.153L407.74 311.191C407.975 309.487 407.623 309.429 406.154 309.429H388.468L389.585 302.672H409.679C414.086 302.672 415.966 303.671 415.143 308.9L411.971 328.759ZM403.216 328.23C404.685 328.23 405.037 328.172 405.272 326.468L406.095 321.532H394.814C393.345 321.532 392.992 321.591 392.699 323.295L392.17 326.468C391.935 328.172 392.287 328.23 393.756 328.23H403.216ZM442.848 334.987L435.504 318.947L448.195 302.672H440.557L430.392 315.598H427.572L431.179 292.566H424.128L417.466 334.987H424.516L426.514 322.355H429.452L435.21 334.987H442.848ZM473.408 328.23L472.35 334.987H452.902C448.496 334.987 446.557 333.989 447.379 328.759L450.552 308.9C451.375 303.671 453.607 302.672 458.014 302.672H472.292C476.698 302.672 478.579 303.671 477.756 308.9L476.581 316.244C475.758 321.474 473.526 322.472 469.119 322.472H455.429L454.782 326.468C454.547 328.172 454.9 328.23 456.369 328.23H473.408ZM467.768 315.715C469.236 315.715 469.648 315.657 469.883 313.953L470.353 311.191C470.588 309.487 470.235 309.429 468.766 309.429H459.307C457.838 309.429 457.485 309.487 457.25 311.191L456.486 315.715H467.768ZM50.9266 334.987H43.1196L53.1899 297.004C53.8729 294.428 56.2042 292.634 58.8693 292.634H73.1204C75.3729 292.634 77.1614 294.529 77.0308 296.778L74.813 334.987H67.2385L68.3851 320.341H54.7632L50.9266 334.987ZM69.9299 300.614L68.9255 313.445H56.5691L59.8789 300.809C60.1045 299.948 60.883 299.347 61.7735 299.347H68.7584C69.4435 299.347 69.9834 299.931 69.9299 300.614Z" fill="white"/>
<path d="M496.793 271.781V290.582H499.801V276.904H499.943L505.865 290.582H508.403L514.326 276.904H514.467V290.582H517.475V271.781H513.762L507.228 286.634H507.087L500.507 271.781H496.793ZM478.978 271.781V274.554H485.465V290.582H488.52V274.554H495.007V271.781H478.978Z" fill="white"/>
</svg>
