<svg width="1024" height="1024" viewBox="0 0 1024 1024" fill="none" xmlns="http://www.w3.org/2000/svg">
<path fill-rule="evenodd" clip-rule="evenodd" d="M32 512C32 246.836 246.916 31.9204 512.08 31.9204C777.244 31.9204 992.16 246.836 992 512C992 591.374 972.637 666.106 938.551 732.037C928.789 740.999 918.068 749.32 906.386 756.201C829.733 801.649 788.286 806.769 731.477 806.769C658.824 806.769 572.57 792.687 482.315 766.123C434.147 751.88 393.02 745.319 352.853 745.319C306.926 745.319 248.836 751.56 185.786 775.884C164.502 784.206 145.299 792.207 127.856 799.888C67.6859 719.715 32 620.018 32 512ZM728.916 738.758C784.925 738.758 860.138 730.117 901.105 688.99L901.265 689.31C919.508 670.907 929.27 647.543 929.27 623.219C929.11 585.773 911.667 522.882 797.088 522.882C788.766 522.882 779.965 523.042 771.483 523.362C773.564 511.04 774.204 498.398 773.564 485.756C772.283 463.832 767.163 442.869 758.521 423.186C783.485 405.263 803.169 385.099 817.091 363.016C850.056 310.687 848.296 249.237 812.45 198.828C797.728 178.025 773.244 165.703 747.159 165.703C726.836 165.703 707.313 173.064 692.11 186.346L678.508 198.188C669.386 156.581 644.742 121.375 606.976 98.8116C594.974 91.6104 581.212 87.7697 566.969 87.7697C533.364 87.7697 501.678 109.213 488.076 141.219L393.66 356.294C362.135 337.091 317.808 316.448 262.118 316.448C244.995 316.448 227.553 318.368 209.95 322.209C100.811 346.053 68.4861 413.904 73.927 464.793C79.3679 515.361 121.775 553.767 173.464 556.168C160.981 571.53 148.179 590.093 136.017 612.977L103.052 674.908C86.5691 706.113 117.134 741.159 150.26 729.157L216.191 705.153C266.439 686.749 310.926 678.268 356.054 678.268C395.581 678.268 436.227 684.829 483.595 698.751C572.57 724.996 657.384 738.758 728.916 738.758Z" fill="white"/>
<path d="M352.853 814.931C386.299 814.931 421.185 820.532 462.792 832.854L462.632 832.694C559.288 861.178 652.263 876.221 731.477 876.221C770.363 876.221 803.489 873.501 839.335 862.939C753.56 942.952 642.662 992.08 511.92 992.08C381.178 992.08 262.598 939.752 176.024 854.937C187.066 850.297 198.428 845.656 210.91 840.855C255.397 823.732 303.085 814.931 352.853 814.931Z" fill="white"/>
<path fill-rule="evenodd" clip-rule="evenodd" d="M767.978 588.672C778.087 588.337 787.884 588.013 797.087 588.013V587.373C835.173 587.373 863.658 592.654 863.818 622.579C863.978 649.943 815.49 672.507 729.076 672.507C670.026 672.507 593.213 661.945 502.318 635.221C451.269 620.339 403.901 612.177 356.374 612.177C311.566 612.177 266.759 619.218 218.431 634.581C209.949 637.301 202.588 627.7 207.389 620.179C231.017 583.662 255.157 564.734 273.375 550.45C295.873 532.809 309.338 522.252 301.644 494.398C295.723 472.954 278.601 465.593 261.158 465.593C243.715 465.593 224.352 472.474 210.909 480.475C199.387 487.356 188.506 490.237 178.744 490.237C127.855 490.237 109.932 410.384 224.192 385.579C237.634 382.539 250.276 381.259 262.438 381.259C303.565 381.259 338.291 396.781 372.216 419.345C368.696 432.467 366.935 446.23 366.935 460.312C366.935 553.127 445.508 628.5 542.645 628.5C565.848 628.5 588.092 624.179 608.416 616.338C595.613 620.339 582.011 622.739 567.769 623.379C564.888 623.539 562.168 623.539 559.287 623.539C481.514 623.539 417.024 571.05 413.343 503.039C412.223 481.115 417.504 460.152 427.745 441.589L548.406 166.343C552.086 158.022 559.927 152.581 567.129 152.581C569.369 152.581 571.609 153.221 573.53 154.341C593.853 166.503 624.258 194.988 615.457 253.237C608.736 298.045 583.451 337.892 557.847 368.137H562.328C569.209 368.137 576.09 368.617 582.651 369.417L735.477 234.994C738.837 232.114 743.158 230.674 747.319 230.674C752.12 230.674 756.6 232.594 759.321 236.275C771.643 253.718 787.165 287.483 761.881 327.49C739.958 362.056 697.87 386.22 661.384 401.742C688.589 423.506 706.192 454.071 708.112 488.797C710.193 525.603 694.03 559.528 666.665 584.173C687.629 587.373 710.193 589.293 734.517 589.293H745.718C753.23 589.159 760.685 588.913 767.978 588.672ZM569.529 463.832C569.529 483.099 553.91 498.718 534.643 498.718C515.377 498.718 499.758 483.099 499.758 463.832C499.758 444.565 515.377 428.947 534.643 428.947C553.91 428.947 569.529 444.565 569.529 463.832Z" fill="white"/>
</svg>
