<svg width="1024" height="1024" viewBox="0 0 1024 1024" fill="none" xmlns="http://www.w3.org/2000/svg">
<circle cx="512" cy="512" r="480" fill="#7497F7"/>
<path d="M759.128 596.824C729.08 597.522 701.488 595.552 675.958 591.5C704.733 565.568 721.655 529.888 719.559 491.326C717.576 454.903 698.964 422.713 670.403 399.886C708.687 383.588 753.033 358.151 775.949 321.863C802.538 279.756 786.247 244.256 773.222 225.955C768.017 218.639 755.77 217.963 748.21 224.615L587.638 365.928C579.143 364.904 570.434 364.499 561.579 364.724C588.506 332.893 614.982 291 622.148 243.918C631.477 182.632 599.389 152.805 578.073 140.041C569.555 134.942 556.632 141.099 551.686 152.681L424.824 441.915C414.019 461.443 408.476 483.459 409.738 506.499C413.783 580.549 486.419 637.175 571.966 632.988C586.883 632.257 601.203 629.724 614.678 625.65C593.305 633.923 569.95 638.481 545.478 638.481C443.459 638.481 360.751 559.343 360.751 461.724C360.751 446.878 362.677 432.46 366.282 418.683C320.055 388.023 272.555 369.755 210.814 383.206C67.7614 414.361 121.864 527.445 196.866 482.941C225.528 465.934 280.183 453.508 292.294 497.607C308.079 555.066 238.406 542.404 179.256 653.8C295.179 611.58 390.517 612.582 503.206 645.741C738.532 714.985 883.433 680.959 883.174 632.459C882.926 587.82 822.886 595.361 759.15 596.847L759.128 596.824Z" fill="white"/>
<path d="M500.682 464.899C500.682 485.159 517.12 501.57 537.389 501.57C557.669 501.57 574.095 485.159 574.095 464.899C574.095 444.639 557.669 428.229 537.389 428.229C517.109 428.229 500.682 444.639 500.682 464.899Z" fill="#FF8B8B"/>
<path fill-rule="evenodd" clip-rule="evenodd" d="M140.379 815.828C120.83 791.946 103.537 766.144 88.8274 738.749C155.991 718.854 246.737 700.342 345.336 700.342C419.903 700.342 476.282 714.234 531.162 727.807L532.205 728.065C586.353 741.458 640.124 754.757 715.331 758.099C799.031 761.818 877.914 743.543 942.369 724.802C922.727 764.45 897.767 800.996 868.422 833.507C820.031 842.701 766.657 848.563 711.42 846.109C627.441 842.377 566.632 827.334 512.252 813.882L510.011 813.327C455.437 799.83 408.208 788.439 345.336 788.439C268.174 788.439 196.557 801.148 140.379 815.828Z" fill="white"/>
</svg>
