<svg width="1265" height="256" viewBox="0 0 1265 256" fill="none" xmlns="http://www.w3.org/2000/svg">
<circle cx="128" cy="128" r="120" fill="#7497F7"/>
<path d="M189.782 149.206C182.27 149.381 175.372 148.888 168.989 147.875C176.183 141.392 180.414 132.472 179.89 122.832C179.394 113.726 174.741 105.678 167.601 99.9716C177.172 95.8971 188.258 89.5377 193.987 80.4658C200.635 69.939 196.562 61.064 193.306 56.4887C192.004 54.6596 188.943 54.4908 187.053 56.1538L146.91 91.4821C144.786 91.226 142.609 91.1247 140.395 91.181C147.126 83.2234 153.746 72.7501 155.537 60.9796C157.869 45.658 149.847 38.2012 144.518 35.0103C142.389 33.7356 139.158 35.2748 137.922 38.1703L106.206 110.479C103.505 115.361 102.119 120.865 102.434 126.625C103.446 145.137 121.605 159.294 142.992 158.247C146.721 158.064 150.301 157.431 153.67 156.412C148.326 158.481 142.487 159.62 136.37 159.62C110.865 159.62 90.1876 139.836 90.1876 115.431C90.1876 111.72 90.6693 108.115 91.5706 104.671C80.0139 97.0058 68.1388 92.4388 52.7035 95.8014C16.9404 103.59 30.466 131.861 49.2165 120.735C56.3821 116.483 70.0457 113.377 73.0736 124.402C77.0197 138.767 59.6015 135.601 44.814 163.45C73.7947 152.895 97.6293 153.146 125.802 161.435C184.633 178.746 220.858 170.24 220.793 158.115C220.731 146.955 205.721 148.84 189.788 149.212L189.782 149.206Z" fill="white"/>
<path d="M125.17 116.224C125.17 121.289 129.28 125.392 134.347 125.392C139.417 125.392 143.524 121.289 143.524 116.224C143.524 111.159 139.417 107.057 134.347 107.057C129.277 107.057 125.17 111.159 125.17 116.224Z" fill="#FF8B8B"/>
<path fill-rule="evenodd" clip-rule="evenodd" d="M35.0947 203.957C30.2074 197.986 25.8844 191.536 22.2069 184.687C38.9979 179.714 61.6844 175.085 86.334 175.085C104.976 175.085 119.07 178.559 132.79 181.952L133.051 182.016C146.588 185.364 160.031 188.689 178.833 189.525C199.758 190.454 219.479 185.886 235.592 181.2C230.682 191.113 224.442 200.249 217.105 208.377C205.008 210.675 191.664 212.141 177.855 211.527C156.86 210.594 141.658 206.834 128.063 203.47L127.503 203.332C113.859 199.958 102.052 197.11 86.334 197.11C67.0434 197.11 49.1392 200.287 35.0947 203.957Z" fill="white"/>
<path fill-rule="evenodd" clip-rule="evenodd" d="M625.959 108.04L617.559 161.32H603.159L610.839 112.72C611.319 109.24 610.599 109.12 607.599 109.12H584.559L576.399 161.32H561.999L575.903 74.6799H590.303L586.839 95.3199H614.799C623.799 95.3199 627.639 97.3599 625.959 108.04ZM423.07 148.6C421.39 159.28 416.95 161.32 407.95 161.32H379.99L376.427 181.32H362.027L373.99 108.04C375.67 97.3599 380.23 95.3199 389.23 95.3199H418.39C427.39 95.3199 431.23 97.3599 429.55 108.04L423.07 148.6ZM405.19 147.52C408.19 147.52 408.91 147.4 409.39 143.92L414.43 112.72C414.91 109.24 414.19 109.12 411.19 109.12H391.87C388.87 109.12 388.15 109.24 387.67 112.72L382.15 147.52H405.19ZM490.542 148.6C488.862 159.28 484.422 161.32 475.422 161.32H446.262C437.262 161.32 433.302 159.28 434.982 148.6L437.502 132.76C439.182 122.08 443.742 120.04 452.742 120.04H480.702L481.902 112.72C482.382 109.24 481.662 109.12 478.662 109.12H442.542L444.822 95.3199H485.862C494.862 95.3199 498.702 97.3599 497.022 108.04L490.542 148.6ZM472.662 147.52C475.662 147.52 476.382 147.4 476.862 143.92L478.542 133.84H455.502C452.502 133.84 451.782 133.96 451.182 137.44L450.102 143.92C449.622 147.4 450.342 147.52 453.342 147.52H472.662ZM550.845 161.32L553.005 147.52H521.805C518.805 147.52 518.085 147.4 518.565 143.92L523.605 112.72C524.085 109.24 524.805 109.12 527.805 109.12H559.005L561.285 95.3199H525.165C516.165 95.3199 511.605 97.3599 509.925 108.04L503.445 148.6C501.765 159.28 505.725 161.32 514.725 161.32H550.845ZM683.585 161.32L685.745 147.52H650.945C647.945 147.52 647.225 147.4 647.705 143.92L649.025 135.76H676.985C685.985 135.76 690.545 133.72 692.225 123.04L694.625 108.04C696.305 97.3599 692.465 95.3199 683.465 95.3199H654.305C645.305 95.3199 640.745 97.3599 639.065 108.04L632.585 148.6C630.905 159.28 634.865 161.32 643.865 161.32H683.585ZM678.545 118.36C678.065 121.84 677.225 121.96 674.225 121.96H651.185L652.745 112.72C653.225 109.24 653.945 109.12 656.945 109.12H676.265C679.265 109.12 679.985 109.24 679.505 112.72L678.545 118.36ZM785.588 148.6C783.908 159.28 779.468 161.32 770.468 161.32H721.868L735.548 74.6799H784.148C793.148 74.6799 796.988 76.7199 795.308 87.3999L785.588 148.6ZM767.708 147.52C771.068 147.52 771.428 147.4 771.908 144.04L780.188 92.0799C780.668 88.5999 780.068 88.4799 777.068 88.4799H747.788L738.428 147.52H767.708ZM850.577 161.32L852.737 147.52H817.937C814.937 147.52 814.217 147.4 814.697 143.92L816.017 135.76H843.977C852.977 135.76 857.537 133.72 859.217 123.04L861.617 108.04C863.297 97.3599 859.457 95.3199 850.457 95.3199H821.297C812.297 95.3199 807.737 97.3599 806.057 108.04L799.577 148.6C797.897 159.28 801.857 161.32 810.857 161.32H850.577ZM845.537 118.36C845.057 121.84 844.217 121.96 841.217 121.96H818.177L819.737 112.72C820.217 109.24 820.937 109.12 823.937 109.12H843.257C846.257 109.12 846.977 109.24 846.497 112.72L845.537 118.36ZM927.569 95.3199L897.089 161.32H879.089L869.369 95.3199H884.609L890.609 145.12L912.569 95.3199H927.569ZM977.258 161.32L979.418 147.52H942.218L953.738 74.6799H939.338L925.658 161.32H977.258ZM1041.32 148.6C1039.64 159.28 1035.2 161.32 1026.2 161.32H997.044C988.044 161.32 984.084 159.28 985.764 148.6L988.284 132.76C989.964 122.08 994.524 120.04 1003.52 120.04H1031.48L1032.68 112.72C1033.16 109.24 1032.44 109.12 1029.44 109.12H993.324L995.604 95.3199H1036.64C1045.64 95.3199 1049.48 97.3599 1047.8 108.04L1041.32 148.6ZM1023.44 147.52C1026.44 147.52 1027.16 147.4 1027.64 143.92L1029.32 133.84H1006.28C1003.28 133.84 1002.56 133.96 1001.96 137.44L1000.88 143.92C1000.4 147.4 1001.12 147.52 1004.12 147.52H1023.44ZM1104.39 161.32L1089.39 128.56L1115.31 95.3199H1099.71L1078.95 121.72H1073.19L1080.55 74.6799H1066.15L1052.55 161.32H1066.95L1071.03 135.52H1077.03L1088.79 161.32H1104.39ZM1166.8 147.52L1164.64 161.32H1124.92C1115.92 161.32 1111.96 159.28 1113.64 148.6L1120.12 108.04C1121.8 97.3599 1126.36 95.3199 1135.36 95.3199H1164.52C1173.52 95.3199 1177.36 97.3599 1175.68 108.04L1173.28 123.04C1171.6 133.72 1167.04 135.76 1158.04 135.76H1130.08L1128.76 143.92C1128.28 147.4 1129 147.52 1132 147.52H1166.8ZM1155.28 121.96C1158.28 121.96 1159.12 121.84 1159.6 118.36L1160.56 112.72C1161.04 109.24 1160.32 109.12 1157.32 109.12H1138C1135 109.12 1134.28 109.24 1133.8 112.72L1132.24 121.96H1155.28ZM303.945 161.32H288L308.567 83.7443C309.962 78.4831 314.723 74.8196 320.166 74.8196H349.272C353.873 74.8196 357.525 78.6904 357.259 83.2832L352.729 161.32H337.259L339.601 131.406H311.78L303.945 161.32ZM342.756 91.1173L340.705 117.322H315.469L322.228 91.5164C322.689 89.757 324.279 88.53 326.098 88.53H340.363C341.763 88.53 342.865 89.7222 342.756 91.1173Z" fill="#7497F7"/>
<path d="M1214.56 32.112V70.512H1220.71V42.576H1220.99L1233.09 70.512H1238.27L1250.37 42.576H1250.66V70.512H1256.8V32.112H1249.22L1235.87 62.448H1235.59L1222.15 32.112H1214.56ZM1178.18 32.112V37.776H1191.43V70.512H1197.67V37.776H1210.91V32.112H1178.18Z" fill="#7497F7"/>
</svg>
