<svg width="521" height="382" viewBox="0 0 521 382" fill="none" xmlns="http://www.w3.org/2000/svg">
<circle cx="260.5" cy="128" r="120" fill="#7497F7"/>
<path d="M322.282 149.207C314.77 149.381 307.872 148.889 301.489 147.876C308.683 141.392 312.914 132.472 312.39 122.832C311.894 113.726 307.241 105.679 300.101 99.9721C309.672 95.8976 320.758 89.5382 326.487 80.4662C333.135 69.9395 329.062 61.0645 325.806 56.4891C324.504 54.6601 321.443 54.4913 319.553 56.1543L279.41 91.4826C277.286 91.2265 275.109 91.1252 272.895 91.1815C279.626 83.2238 286.246 72.7506 288.037 60.9801C290.369 45.6585 282.347 38.2017 277.018 35.0108C274.889 33.7361 271.658 35.2753 270.422 38.1708L238.706 110.479C236.005 115.361 234.619 120.865 234.934 126.625C235.946 145.138 254.105 159.294 275.492 158.248C279.221 158.065 282.801 157.432 286.17 156.413C280.826 158.481 274.987 159.621 268.87 159.621C243.365 159.621 222.688 139.836 222.688 115.432C222.688 111.72 223.169 108.115 224.071 104.671C212.514 97.0062 200.639 92.4393 185.204 95.8019C149.44 103.591 162.966 131.862 181.716 120.736C188.882 116.484 202.546 113.377 205.574 124.402C209.52 138.767 192.102 135.601 177.314 163.45C206.295 152.896 230.129 153.146 258.302 161.436C317.133 178.747 353.358 170.24 353.293 158.115C353.231 146.955 338.221 148.841 322.288 149.212L322.282 149.207Z" fill="white"/>
<path d="M257.67 116.224C257.67 121.289 261.78 125.392 266.847 125.392C271.917 125.392 276.024 121.289 276.024 116.224C276.024 111.159 271.917 107.056 266.847 107.056C261.777 107.056 257.67 111.159 257.67 116.224Z" fill="#FF8B8B"/>
<path fill-rule="evenodd" clip-rule="evenodd" d="M167.307 203.604C162.626 197.841 158.469 191.635 154.908 185.06C171.654 180.107 194.266 175.5 218.834 175.5C237.421 175.5 251.473 178.961 265.191 182.354L265.459 182.42L265.459 182.42C278.996 185.768 292.472 189.101 311.315 189.939C332.14 190.864 351.776 186.358 367.84 181.705C363.072 191.217 357.077 200.007 350.062 207.867C337.85 210.219 324.351 211.734 310.374 211.113C289.421 210.182 274.251 206.429 260.658 203.066L260.658 203.066L260.103 202.929C246.458 199.554 234.608 196.695 218.834 196.695C199.423 196.695 181.412 199.904 167.307 203.604Z" fill="white"/>
<path fill-rule="evenodd" clip-rule="evenodd" d="M208.563 308.9L204.45 334.987H197.399L201.16 311.191C201.395 309.487 201.042 309.429 199.573 309.429H188.292L184.297 334.987H177.246L184.054 292.566H191.104L189.409 302.672H203.099C207.505 302.672 209.386 303.671 208.563 308.9ZM109.222 328.759C108.4 333.989 106.226 334.987 101.819 334.987H88.1288L86.3845 344.78H79.3338L85.191 308.9C86.0136 303.671 88.2463 302.672 92.653 302.672H106.931C111.337 302.672 113.218 303.671 112.395 308.9L109.222 328.759ZM100.468 328.23C101.936 328.23 102.289 328.172 102.524 326.468L104.992 311.191C105.227 309.487 104.874 309.429 103.405 309.429H93.9456C92.4767 309.429 92.1242 309.487 91.8892 311.191L89.1864 328.23H100.468ZM142.258 328.759C141.436 333.989 139.262 334.987 134.855 334.987H120.578C116.171 334.987 114.232 333.989 115.055 328.759L116.288 321.003C117.111 315.774 119.344 314.775 123.75 314.775H137.441L138.028 311.191C138.263 309.487 137.911 309.429 136.442 309.429H118.756L119.873 302.672H139.967C144.374 302.672 146.254 303.671 145.431 308.9L142.258 328.759ZM133.504 328.23C134.973 328.23 135.325 328.172 135.56 326.468L136.383 321.532H125.102C123.633 321.532 123.28 321.591 122.987 323.295L122.458 326.468C122.223 328.172 122.575 328.23 124.044 328.23H133.504ZM171.785 334.987L172.842 328.23H157.566C156.097 328.23 155.744 328.172 155.979 326.468L158.447 311.191C158.682 309.487 159.035 309.429 160.503 309.429H175.78L176.896 302.672H159.211C154.804 302.672 152.571 303.671 151.749 308.9L148.576 328.759C147.753 333.989 149.692 334.987 154.099 334.987H171.785ZM236.779 334.987L237.836 328.23H220.797C219.328 328.23 218.976 328.172 219.211 326.468L219.857 322.472H233.547C237.954 322.472 240.186 321.474 241.009 316.244L242.184 308.9C243.007 303.671 241.127 302.672 236.72 302.672H222.442C218.035 302.672 215.803 303.671 214.98 308.9L211.807 328.759C210.985 333.989 212.924 334.987 217.33 334.987H236.779ZM234.311 313.953C234.076 315.657 233.665 315.715 232.196 315.715H220.915L221.678 311.191C221.913 309.487 222.266 309.429 223.735 309.429H233.195C234.663 309.429 235.016 309.487 234.781 311.191L234.311 313.953ZM286.722 328.759C285.9 333.989 283.726 334.987 279.319 334.987H255.523L262.221 292.566H286.017C290.424 292.566 292.304 293.565 291.482 298.794L286.722 328.759ZM277.968 328.23C279.613 328.23 279.789 328.172 280.024 326.527L284.078 301.085C284.313 299.381 284.02 299.323 282.551 299.323H268.214L263.631 328.23H277.968ZM318.543 334.987L319.601 328.23H302.562C301.093 328.23 300.74 328.172 300.975 326.468L301.622 322.472H315.312C319.718 322.472 321.951 321.474 322.774 316.244L323.949 308.9C324.771 303.671 322.891 302.672 318.484 302.672H304.207C299.8 302.672 297.567 303.671 296.745 308.9L293.572 328.759C292.749 333.989 294.688 334.987 299.095 334.987H318.543ZM316.076 313.953C315.84 315.657 315.429 315.715 313.96 315.715H302.679L303.443 311.191C303.678 309.487 304.031 309.429 305.499 309.429H314.959C316.428 309.429 316.781 309.487 316.546 311.191L316.076 313.953ZM356.241 302.672L341.317 334.987H332.504L327.744 302.672H335.206L338.144 327.055L348.896 302.672H356.241ZM380.57 334.987L381.628 328.23H363.413L369.054 292.566H362.003L355.305 334.987H380.57ZM411.939 328.759C411.116 333.989 408.942 334.987 404.535 334.987H390.258C385.851 334.987 383.912 333.989 384.735 328.759L385.969 321.003C386.791 315.774 389.024 314.775 393.431 314.775H407.121L407.708 311.191C407.943 309.487 407.591 309.429 406.122 309.429H388.436L389.553 302.672H409.647C414.054 302.672 415.934 303.671 415.111 308.9L411.939 328.759ZM403.184 328.23C404.653 328.23 405.005 328.172 405.241 326.468L406.063 321.532H394.782C393.313 321.532 392.961 321.591 392.667 323.295L392.138 326.468C391.903 328.172 392.255 328.23 393.724 328.23H403.184ZM442.816 334.987L435.472 318.947L448.163 302.672H440.525L430.36 315.598H427.54L431.147 292.566H424.096L417.434 334.987H424.484L426.482 322.355H429.42L435.178 334.987H442.816ZM473.376 328.23L472.318 334.987H452.87C448.464 334.987 446.525 333.989 447.347 328.759L450.52 308.9C451.343 303.671 453.575 302.672 457.982 302.672H472.26C476.666 302.672 478.547 303.671 477.724 308.9L476.549 316.244C475.726 321.474 473.494 322.472 469.087 322.472H455.397L454.75 326.468C454.515 328.172 454.868 328.23 456.337 328.23H473.376ZM467.736 315.715C469.204 315.715 469.616 315.657 469.851 313.953L470.321 311.191C470.556 309.487 470.203 309.429 468.734 309.429H459.275C457.806 309.429 457.453 309.487 457.218 311.191L456.454 315.715H467.736ZM50.8947 334.987H43.0876L53.1579 297.004C53.8409 294.428 56.1722 292.634 58.8373 292.634H73.0884C75.3409 292.634 77.1294 294.529 76.9989 296.778L74.781 334.987H67.2065L68.3531 320.341H54.7312L50.8947 334.987ZM69.8979 300.614L68.8935 313.445H56.5371L59.8469 300.809C60.0726 299.948 60.851 299.347 61.7415 299.347H68.7264C69.4115 299.347 69.9514 299.931 69.8979 300.614Z" fill="#7497F7"/>
<path d="M496.761 271.781V290.582H499.77V276.904H499.911L505.833 290.582H508.371L514.294 276.904H514.435V290.582H517.443V271.781H513.73L507.196 286.634H507.055L500.475 271.781H496.761ZM478.947 271.781V274.554H485.433V290.582H488.488V274.554H494.975V271.781H478.947Z" fill="#7497F7"/>
</svg>
