<svg width="522" height="382" viewBox="0 0 522 382" fill="none" xmlns="http://www.w3.org/2000/svg">
<path fill-rule="evenodd" clip-rule="evenodd" d="M372.316 183.273C380.568 166.615 385.206 147.849 385.206 128C385.206 59.1443 329.388 3.32568 260.532 3.32568C191.676 3.32568 135.858 59.1443 135.858 128C135.858 196.856 191.676 252.674 260.532 252.674C297.267 252.674 330.292 236.787 353.109 211.508C340.54 213.896 326.677 215.418 312.33 214.781C290.517 213.812 274.723 209.904 260.598 206.41L260.598 206.41L260.016 206.266C245.841 202.761 233.574 199.802 217.243 199.802C197.201 199.802 178.6 203.103 164.008 206.916C158.93 200.713 154.439 194.011 150.618 186.895C168.063 181.728 191.634 176.92 217.243 176.92C236.611 176.92 251.255 180.528 265.509 184.053L265.78 184.12C279.845 187.599 293.811 191.053 313.345 191.921C335.085 192.887 355.574 188.141 372.316 183.273ZM324.721 150.032C316.916 150.213 309.749 149.702 303.118 148.649C310.592 141.914 314.988 132.646 314.443 122.63C313.928 113.17 309.094 104.809 301.676 98.8798C311.619 94.6466 323.138 88.0395 329.09 78.6142C335.996 67.6774 331.765 58.4567 328.382 53.7031C327.03 51.8028 323.849 51.6274 321.885 53.3552L280.178 90.0596C277.972 89.7936 275.71 89.6883 273.41 89.7468C280.404 81.4792 287.281 70.5979 289.142 58.369C291.565 42.4506 283.231 34.7033 277.694 31.3881C275.481 30.0637 272.125 31.6629 270.84 34.6711L237.889 109.796C235.083 114.868 233.643 120.587 233.971 126.571C235.021 145.805 253.888 160.513 276.108 159.425C279.982 159.235 283.702 158.578 287.202 157.519C281.65 159.668 275.584 160.852 269.228 160.852C242.729 160.852 221.247 140.297 221.247 114.941C221.247 111.085 221.747 107.34 222.684 103.762C210.677 95.7984 198.339 91.0536 182.303 94.5472C145.146 102.639 159.199 132.012 178.68 120.452C186.125 116.035 200.32 112.807 203.466 124.262C205.553 131.859 201.888 134.737 195.759 139.548C189.849 144.188 181.648 150.627 174.106 164.831C204.215 153.865 228.978 154.125 258.248 162.738C319.371 180.723 357.007 171.885 356.94 159.288C356.883 148.966 344.516 149.385 330.122 149.874C328.348 149.934 326.543 149.996 324.727 150.038L324.721 150.032ZM275.451 115.491C275.451 120.494 271.395 124.551 266.392 124.551C261.388 124.551 257.332 120.494 257.332 115.491C257.332 110.487 261.388 106.431 266.392 106.431C271.395 106.431 275.451 110.487 275.451 115.491Z" fill="black"/>
<path fill-rule="evenodd" clip-rule="evenodd" d="M208.595 308.9L204.482 334.987H197.431L201.192 311.191C201.427 309.487 201.074 309.429 199.605 309.429H188.324L184.329 334.987H177.278L184.086 292.566H191.136L189.441 302.672H203.131C207.537 302.672 209.418 303.671 208.595 308.9ZM109.254 328.759C108.432 333.989 106.258 334.987 101.851 334.987H88.1608L86.4165 344.78H79.3658L85.223 308.9C86.0456 303.671 88.2783 302.672 92.685 302.672H106.963C111.369 302.672 113.25 303.671 112.427 308.9L109.254 328.759ZM100.499 328.23C101.968 328.23 102.321 328.172 102.556 326.468L105.024 311.191C105.259 309.487 104.906 309.429 103.437 309.429H93.9776C92.5087 309.429 92.1562 309.487 91.9211 311.191L89.2184 328.23H100.499ZM142.29 328.759C141.468 333.989 139.294 334.987 134.887 334.987H120.61C116.203 334.987 114.264 333.989 115.087 328.759L116.32 321.003C117.143 315.774 119.376 314.775 123.782 314.775H137.472L138.06 311.191C138.295 309.487 137.943 309.429 136.474 309.429H118.788L119.905 302.672H139.999C144.406 302.672 146.286 303.671 145.463 308.9L142.29 328.759ZM133.536 328.23C135.005 328.23 135.357 328.172 135.592 326.468L136.415 321.532H125.134C123.665 321.532 123.312 321.591 123.019 323.295L122.49 326.468C122.255 328.172 122.607 328.23 124.076 328.23H133.536ZM171.817 334.987L172.874 328.23H157.598C156.129 328.23 155.776 328.172 156.011 326.468L158.479 311.191C158.714 309.487 159.067 309.429 160.535 309.429H175.812L176.928 302.672H159.243C154.836 302.672 152.603 303.671 151.781 308.9L148.608 328.759C147.785 333.989 149.724 334.987 154.131 334.987H171.817ZM236.811 334.987L237.868 328.23H220.829C219.36 328.23 219.008 328.172 219.243 326.468L219.889 322.472H233.579C237.986 322.472 240.218 321.474 241.041 316.244L242.216 308.9C243.039 303.671 241.158 302.672 236.752 302.672H222.474C218.067 302.672 215.835 303.671 215.012 308.9L211.839 328.759C211.017 333.989 212.956 334.987 217.362 334.987H236.811ZM234.343 313.953C234.108 315.657 233.697 315.715 232.228 315.715H220.947L221.71 311.191C221.945 309.487 222.298 309.429 223.767 309.429H233.226C234.695 309.429 235.048 309.487 234.813 311.191L234.343 313.953ZM286.754 328.759C285.932 333.989 283.758 334.987 279.351 334.987H255.555L262.253 292.566H286.049C290.456 292.566 292.336 293.565 291.514 298.794L286.754 328.759ZM278 328.23C279.645 328.23 279.821 328.172 280.056 326.527L284.11 301.085C284.345 299.381 284.052 299.323 282.583 299.323H268.246L263.663 328.23H278ZM318.575 334.987L319.633 328.23H302.594C301.125 328.23 300.772 328.172 301.007 326.468L301.654 322.472H315.344C319.75 322.472 321.983 321.474 322.806 316.244L323.981 308.9C324.803 303.671 322.923 302.672 318.516 302.672H304.239C299.832 302.672 297.599 303.671 296.777 308.9L293.604 328.759C292.781 333.989 294.72 334.987 299.127 334.987H318.575ZM316.107 313.953C315.872 315.657 315.461 315.715 313.992 315.715H302.711L303.475 311.191C303.71 309.487 304.063 309.429 305.531 309.429H314.991C316.46 309.429 316.813 309.487 316.578 311.191L316.107 313.953ZM356.273 302.672L341.349 334.987H332.536L327.776 302.672H335.238L338.176 327.055L348.928 302.672H356.273ZM380.602 334.987L381.66 328.23H363.445L369.086 292.566H362.035L355.337 334.987H380.602ZM411.971 328.759C411.148 333.989 408.974 334.987 404.567 334.987H390.29C385.883 334.987 383.944 333.989 384.767 328.759L386.001 321.003C386.823 315.774 389.056 314.775 393.463 314.775H407.153L407.74 311.191C407.975 309.487 407.623 309.429 406.154 309.429H388.468L389.585 302.672H409.679C414.086 302.672 415.966 303.671 415.143 308.9L411.971 328.759ZM403.216 328.23C404.685 328.23 405.037 328.172 405.272 326.468L406.095 321.532H394.814C393.345 321.532 392.992 321.591 392.699 323.295L392.17 326.468C391.935 328.172 392.287 328.23 393.756 328.23H403.216ZM442.848 334.987L435.504 318.947L448.195 302.672H440.557L430.392 315.598H427.572L431.179 292.566H424.128L417.466 334.987H424.516L426.514 322.355H429.452L435.21 334.987H442.848ZM473.408 328.23L472.35 334.987H452.902C448.496 334.987 446.557 333.989 447.379 328.759L450.552 308.9C451.375 303.671 453.607 302.672 458.014 302.672H472.292C476.698 302.672 478.579 303.671 477.756 308.9L476.581 316.244C475.758 321.474 473.526 322.472 469.119 322.472H455.429L454.782 326.468C454.547 328.172 454.9 328.23 456.369 328.23H473.408ZM467.768 315.715C469.236 315.715 469.648 315.657 469.883 313.953L470.353 311.191C470.588 309.487 470.235 309.429 468.766 309.429H459.307C457.838 309.429 457.485 309.487 457.25 311.191L456.486 315.715H467.768ZM50.9266 334.987H43.1196L53.1899 297.004C53.8729 294.428 56.2042 292.634 58.8693 292.634H73.1204C75.3729 292.634 77.1614 294.529 77.0308 296.778L74.813 334.987H67.2385L68.3851 320.341H54.7632L50.9266 334.987ZM69.9299 300.614L68.9255 313.445H56.5691L59.8789 300.809C60.1045 299.948 60.883 299.347 61.7735 299.347H68.7584C69.4435 299.347 69.9834 299.931 69.9299 300.614Z" fill="black"/>
<path d="M496.793 271.781V290.582H499.801V276.904H499.943L505.865 290.582H508.403L514.326 276.904H514.467V290.582H517.475V271.781H513.762L507.228 286.634H507.087L500.507 271.781H496.793ZM478.978 271.781V274.554H485.465V290.582H488.52V274.554H495.007V271.781H478.978Z" fill="black"/>
</svg>
