<svg width="1265" height="256" viewBox="0 0 1265 256" fill="none" xmlns="http://www.w3.org/2000/svg">
<path fill-rule="evenodd" clip-rule="evenodd" d="M235.575 181.192C243.516 165.161 247.98 147.102 247.98 128C247.98 61.7369 194.263 8.02002 128 8.02002C61.7369 8.02002 8.02002 61.7369 8.02002 128C8.02002 194.263 61.7369 247.98 128 247.98C163.352 247.98 195.133 232.691 217.091 208.363C204.995 210.662 191.654 212.127 177.847 211.513C156.856 210.581 141.656 206.82 128.063 203.458L127.503 203.319C113.862 199.946 102.057 197.098 86.3413 197.098C67.0539 197.098 49.1526 200.275 35.1105 203.944C30.224 197.975 25.9016 191.525 22.2248 184.678C39.013 179.705 61.6958 175.078 86.3413 175.078C104.98 175.078 119.072 178.55 132.79 181.943L133.051 182.007C146.586 185.355 160.026 188.679 178.825 189.514C199.746 190.444 219.463 185.876 235.575 181.192ZM189.772 149.203C182.261 149.377 175.364 148.885 168.983 147.872C176.175 141.39 180.405 132.471 179.881 122.832C179.386 113.728 174.733 105.682 167.594 99.9762C177.164 95.9024 188.248 89.5441 193.976 80.4736C200.623 69.9487 196.55 61.0752 193.295 56.5005C191.994 54.6718 188.933 54.503 187.043 56.1658L146.907 91.4882C144.783 91.2321 142.606 91.1309 140.393 91.1871C147.123 83.2308 153.741 72.7593 155.533 60.9908C157.864 45.6717 149.844 38.2162 144.516 35.0258C142.387 33.7513 139.156 35.2902 137.92 38.1852L106.21 110.482C103.509 115.363 102.123 120.866 102.439 126.625C103.45 145.134 121.606 159.289 142.989 158.242C146.718 158.059 150.297 157.426 153.665 156.408C148.323 158.476 142.485 159.615 136.368 159.615C110.868 159.615 90.1941 139.834 90.1941 115.433C90.1941 111.722 90.6757 108.118 91.5768 104.675C80.022 97.0109 68.1489 92.4447 52.7162 95.8067C16.959 103.594 30.4824 131.861 49.2298 120.736C56.3942 116.485 70.0555 113.379 73.0829 124.402C75.0915 131.714 71.5642 134.483 65.6662 139.113C59.9786 143.579 52.0864 149.775 44.8281 163.444C73.8038 152.891 97.6345 153.141 125.802 161.43C184.624 178.738 220.843 170.233 220.778 158.11C220.723 148.176 208.822 148.58 194.969 149.05C193.262 149.108 191.525 149.167 189.777 149.208L189.772 149.203ZM142.358 115.962C142.358 120.777 138.454 124.68 133.639 124.68C128.824 124.68 124.921 120.777 124.921 115.962C124.921 111.147 128.824 107.243 133.639 107.243C138.454 107.243 142.358 111.147 142.358 115.962Z" fill="black"/>
<path fill-rule="evenodd" clip-rule="evenodd" d="M625.959 108.04L617.559 161.32H603.159L610.839 112.72C611.319 109.24 610.599 109.12 607.599 109.12H584.559L576.399 161.32H561.999L575.902 74.6801H590.302L586.839 95.3201H614.799C623.799 95.3201 627.639 97.3601 625.959 108.04ZM423.07 148.6C421.39 159.28 416.95 161.32 407.95 161.32H379.99L376.427 181.32H362.027L373.99 108.04C375.67 97.3601 380.23 95.3201 389.23 95.3201H418.39C427.39 95.3201 431.23 97.3601 429.55 108.04L423.07 148.6ZM405.19 147.52C408.19 147.52 408.91 147.4 409.39 143.92L414.43 112.72C414.91 109.24 414.19 109.12 411.19 109.12H391.87C388.87 109.12 388.15 109.24 387.67 112.72L382.15 147.52H405.19ZM490.542 148.6C488.862 159.28 484.422 161.32 475.422 161.32H446.262C437.262 161.32 433.302 159.28 434.982 148.6L437.502 132.76C439.182 122.08 443.742 120.04 452.742 120.04H480.702L481.902 112.72C482.382 109.24 481.662 109.12 478.662 109.12H442.542L444.822 95.3201H485.862C494.862 95.3201 498.702 97.3601 497.022 108.04L490.542 148.6ZM472.662 147.52C475.662 147.52 476.382 147.4 476.862 143.92L478.542 133.84H455.502C452.502 133.84 451.782 133.96 451.182 137.44L450.102 143.92C449.622 147.4 450.342 147.52 453.342 147.52H472.662ZM550.844 161.32L553.004 147.52H521.804C518.804 147.52 518.084 147.4 518.564 143.92L523.604 112.72C524.084 109.24 524.804 109.12 527.804 109.12H559.004L561.284 95.3201H525.164C516.164 95.3201 511.604 97.3601 509.924 108.04L503.444 148.6C501.764 159.28 505.724 161.32 514.724 161.32H550.844ZM683.585 161.32L685.745 147.52H650.945C647.945 147.52 647.225 147.4 647.705 143.92L649.025 135.76H676.985C685.985 135.76 690.545 133.72 692.225 123.04L694.625 108.04C696.305 97.3601 692.465 95.3201 683.465 95.3201H654.305C645.305 95.3201 640.745 97.3601 639.065 108.04L632.585 148.6C630.905 159.28 634.865 161.32 643.865 161.32H683.585ZM678.545 118.36C678.065 121.84 677.225 121.96 674.225 121.96H651.185L652.745 112.72C653.225 109.24 653.945 109.12 656.945 109.12H676.265C679.265 109.12 679.985 109.24 679.505 112.72L678.545 118.36ZM785.588 148.6C783.908 159.28 779.468 161.32 770.468 161.32H721.868L735.548 74.6801H784.148C793.148 74.6801 796.988 76.7201 795.308 87.4001L785.588 148.6ZM767.708 147.52C771.068 147.52 771.428 147.4 771.908 144.04L780.188 92.0801C780.668 88.6001 780.068 88.4801 777.068 88.4801H747.788L738.428 147.52H767.708ZM850.577 161.32L852.737 147.52H817.937C814.937 147.52 814.217 147.4 814.697 143.92L816.017 135.76H843.977C852.977 135.76 857.537 133.72 859.217 123.04L861.617 108.04C863.297 97.3601 859.457 95.3201 850.457 95.3201H821.297C812.297 95.3201 807.737 97.3601 806.057 108.04L799.577 148.6C797.897 159.28 801.857 161.32 810.857 161.32H850.577ZM845.537 118.36C845.057 121.84 844.217 121.96 841.217 121.96H818.177L819.737 112.72C820.217 109.24 820.937 109.12 823.937 109.12H843.257C846.257 109.12 846.977 109.24 846.497 112.72L845.537 118.36ZM927.569 95.3201L897.089 161.32H879.089L869.368 95.3201H884.609L890.609 145.12L912.569 95.3201H927.569ZM977.257 161.32L979.417 147.52H942.217L953.737 74.6801H939.337L925.657 161.32H977.257ZM1041.32 148.6C1039.64 159.28 1035.2 161.32 1026.2 161.32H997.043C988.043 161.32 984.083 159.28 985.763 148.6L988.283 132.76C989.963 122.08 994.523 120.04 1003.52 120.04H1031.48L1032.68 112.72C1033.16 109.24 1032.44 109.12 1029.44 109.12H993.323L995.603 95.3201H1036.64C1045.64 95.3201 1049.48 97.3601 1047.8 108.04L1041.32 148.6ZM1023.44 147.52C1026.44 147.52 1027.16 147.4 1027.64 143.92L1029.32 133.84H1006.28C1003.28 133.84 1002.56 133.96 1001.96 137.44L1000.88 143.92C1000.4 147.4 1001.12 147.52 1004.12 147.52H1023.44ZM1104.39 161.32L1089.39 128.56L1115.31 95.3201H1099.71L1078.95 121.72H1073.19L1080.55 74.6801H1066.15L1052.55 161.32H1066.95L1071.03 135.52H1077.03L1088.79 161.32H1104.39ZM1166.8 147.52L1164.64 161.32H1124.92C1115.92 161.32 1111.96 159.28 1113.64 148.6L1120.12 108.04C1121.8 97.3601 1126.36 95.3201 1135.36 95.3201H1164.52C1173.52 95.3201 1177.36 97.3601 1175.68 108.04L1173.28 123.04C1171.6 133.72 1167.04 135.76 1158.04 135.76H1130.08L1128.76 143.92C1128.28 147.4 1129 147.52 1132 147.52H1166.8ZM1155.28 121.96C1158.28 121.96 1159.12 121.84 1159.6 118.36L1160.56 112.72C1161.04 109.24 1160.32 109.12 1157.32 109.12H1138C1135 109.12 1134.28 109.24 1133.8 112.72L1132.24 121.96H1155.28ZM303.945 161.32H288L308.567 83.7446C309.962 78.4833 314.723 74.8199 320.166 74.8199H349.272C353.872 74.8199 357.525 78.6906 357.258 83.2834L352.729 161.32H337.259L339.601 131.406H311.78L303.945 161.32ZM342.756 91.1175L340.704 117.322H315.468L322.228 91.5166C322.689 89.7572 324.279 88.5302 326.098 88.5302H340.363C341.762 88.5302 342.865 89.7225 342.756 91.1175Z" fill="black"/>
<path d="M1214.56 32.1123V70.5123H1220.7V42.5763H1220.99L1233.09 70.5123H1238.27L1250.37 42.5763H1250.66V70.5123H1256.8V32.1123H1249.22L1235.87 62.4483H1235.58L1222.14 32.1123H1214.56ZM1178.18 32.1123V37.7763H1191.42V70.5123H1197.66V37.7763H1210.91V32.1123H1178.18Z" fill="black"/>
</svg>
