<svg width="1024" height="1024" viewBox="0 0 1024 1024" fill="none" xmlns="http://www.w3.org/2000/svg">
<path fill-rule="evenodd" clip-rule="evenodd" d="M942.369 724.802C974.141 660.67 992 588.421 992 512C992 246.903 777.097 32 512 32C246.903 32 32 246.903 32 512C32 777.097 246.903 992 512 992C653.431 992 780.575 930.832 868.422 833.508C820.031 842.702 766.658 848.564 711.422 846.109C627.443 842.377 566.634 827.334 512.254 813.882L510.012 813.328C455.439 799.83 408.21 788.439 345.338 788.439C268.175 788.439 196.558 801.148 140.38 815.828C120.831 791.946 103.539 766.144 88.8288 738.749C155.993 718.855 246.739 700.342 345.338 700.342C419.905 700.342 476.283 714.234 531.163 727.807L532.207 728.065C586.355 741.458 640.125 754.757 715.333 758.099C799.032 761.818 877.914 743.543 942.369 724.802ZM759.128 596.824C729.08 597.522 701.488 595.553 675.958 591.501C704.733 565.568 721.656 529.888 719.56 491.326C717.577 454.904 698.965 422.713 670.404 399.887C708.688 383.589 753.033 358.151 775.95 321.863C802.539 279.756 786.247 244.256 773.223 225.955C768.018 218.639 755.771 217.963 748.211 224.615L587.639 365.929C579.144 364.904 570.435 364.499 561.579 364.724C588.507 332.894 614.983 291 622.149 243.919C631.478 182.632 599.39 152.805 578.074 140.041C569.556 134.943 556.633 141.099 551.687 152.681L424.825 441.915C414.02 461.443 408.477 483.459 409.739 506.499C413.783 580.549 486.419 637.176 571.967 632.989C586.884 632.257 601.204 629.724 614.679 625.65C593.306 633.923 569.95 638.481 545.479 638.481C443.46 638.481 360.751 559.344 360.751 461.724C360.751 446.878 362.678 432.46 366.283 418.683C320.056 388.023 272.556 369.755 210.815 383.206C67.7622 414.361 121.865 527.445 196.867 482.941C225.529 465.934 280.184 453.508 292.295 497.607C300.331 526.858 286.219 537.937 262.624 556.461C239.869 574.325 208.295 599.113 179.257 653.8C295.179 611.58 390.518 612.582 503.207 645.741C738.533 714.985 883.433 680.96 883.174 632.46C882.954 592.718 835.341 594.335 779.922 596.216L779.905 596.217L779.901 596.217L779.897 596.217C773.075 596.449 766.135 596.684 759.151 596.847L759.128 596.824ZM569.44 463.84C569.44 483.103 553.824 498.72 534.56 498.72C515.297 498.72 499.68 483.103 499.68 463.84C499.68 444.576 515.297 428.96 534.56 428.96C553.824 428.96 569.44 444.576 569.44 463.84Z" fill="black"/>
</svg>
