<svg width="256" height="256" viewBox="0 0 256 256" fill="none" xmlns="http://www.w3.org/2000/svg">
<path fill-rule="evenodd" clip-rule="evenodd" d="M235.592 181.201C243.535 165.167 248 147.105 248 128C248 61.7258 194.274 8 128 8C61.7258 8 8 61.7258 8 128C8 194.274 61.7258 248 128 248C163.358 248 195.144 232.708 217.105 208.377C205.008 210.675 191.665 212.141 177.855 211.527C156.861 210.594 141.658 206.834 128.063 203.47L127.503 203.332C113.86 199.958 102.052 197.11 86.3344 197.11C67.0438 197.11 49.1395 200.287 35.095 203.957C30.2078 197.986 25.8847 191.536 22.2072 184.687C38.9982 179.714 61.6847 175.085 86.3344 175.085C104.976 175.085 119.071 178.559 132.791 181.952L133.052 182.016C146.589 185.364 160.031 188.689 178.833 189.525C199.758 190.455 219.479 185.886 235.592 181.201ZM189.782 149.206C182.27 149.381 175.372 148.888 168.99 147.875C176.183 141.392 180.414 132.472 179.89 122.832C179.394 113.726 174.741 105.678 167.601 99.9716C177.172 95.8971 188.258 89.5377 193.987 80.4658C200.635 69.939 196.562 61.0641 193.306 56.4887C192.004 54.6597 188.943 54.4908 187.053 56.1538L146.91 91.4821C144.786 91.2261 142.609 91.1248 140.395 91.181C147.127 83.2234 153.746 72.7501 155.537 60.9797C157.869 45.6581 149.848 38.2013 144.518 35.0103C142.389 33.7356 139.158 35.2748 137.922 38.1703L106.206 110.479C103.505 115.361 102.119 120.865 102.435 126.625C103.446 145.137 121.605 159.294 142.992 158.247C146.721 158.064 150.301 157.431 153.67 156.412C148.327 158.481 142.488 159.62 136.37 159.62C110.865 159.62 90.1878 139.836 90.1878 115.431C90.1878 111.72 90.6695 108.115 91.5708 104.671C80.014 97.0058 68.139 92.4389 52.7037 95.8014C16.9405 103.59 30.4662 131.861 49.2167 120.735C56.3823 116.483 70.0459 113.377 73.0738 124.402C75.0827 131.715 71.5548 134.484 65.6559 139.115C59.9673 143.581 52.0738 149.778 44.8142 163.45C73.7949 152.895 97.6295 153.146 125.802 161.435C184.633 178.746 220.858 170.24 220.794 158.115C220.738 148.18 208.835 148.584 194.981 149.054L194.976 149.054L194.975 149.054L194.974 149.054C193.269 149.112 191.534 149.171 189.788 149.212L189.782 149.206ZM142.36 115.96C142.36 120.776 138.456 124.68 133.64 124.68C128.824 124.68 124.92 120.776 124.92 115.96C124.92 111.144 128.824 107.24 133.64 107.24C138.456 107.24 142.36 111.144 142.36 115.96Z" fill="black"/>
</svg>
